<svg xmlns="http://www.w3.org/2000/svg" width="1200" height="820" viewBox="0 0 1200 820">
<style>
    text { font-family: Arial, sans-serif; fill: #111; }
    .root { fill: #f8f8f8; stroke: #111; stroke-width: 2; }
    .branch { fill: #ffffff; stroke: #333; stroke-width: 1.5; }
    .leaf { fill: #ffffff; stroke: #777; stroke-width: 1; }
    .line { stroke: #555; stroke-width: 1.3; fill: none; }
    .title { font-size: 22px; font-weight: 700; }
    .branchText { font-size: 16px; font-weight: 700; }
    .leafText { font-size: 13px; }
  </style>
<rect x="470" y="30" width="260" height="54" rx="12" class="root"/>
<text x="600" y="64" text-anchor="middle" class="title">Systems Design Speedrun</text>
<line x1="600" y1="84" x2="170" y2="150" class="line"/>
<rect x="60" y="130" width="220" height="44" rx="10" class="branch"/>
<text x="170" y="158" text-anchor="middle" class="branchText">Frame</text>
<line x1="170" y1="174" x2="170" y2="210" class="line"/>
<rect x="70" y="190" width="200" height="32" rx="8" class="leaf"/>
<text x="170" y="211" text-anchor="middle" class="leafText">Users</text>
<line x1="170" y1="174" x2="170" y2="250" class="line"/>
<rect x="70" y="230" width="200" height="32" rx="8" class="leaf"/>
<text x="170" y="251" text-anchor="middle" class="leafText">Requirements</text>
<line x1="170" y1="174" x2="170" y2="290" class="line"/>
<rect x="70" y="270" width="200" height="32" rx="8" class="leaf"/>
<text x="170" y="291" text-anchor="middle" class="leafText">Non-goals</text>
<line x1="170" y1="174" x2="170" y2="330" class="line"/>
<rect x="70" y="310" width="200" height="32" rx="8" class="leaf"/>
<text x="170" y="331" text-anchor="middle" class="leafText">Success metrics</text>
<line x1="600" y1="84" x2="450" y2="150" class="line"/>
<rect x="340" y="130" width="220" height="44" rx="10" class="branch"/>
<text x="450" y="158" text-anchor="middle" class="branchText">Estimate</text>
<line x1="450" y1="174" x2="450" y2="210" class="line"/>
<rect x="350" y="190" width="200" height="32" rx="8" class="leaf"/>
<text x="450" y="211" text-anchor="middle" class="leafText">QPS</text>
<line x1="450" y1="174" x2="450" y2="250" class="line"/>
<rect x="350" y="230" width="200" height="32" rx="8" class="leaf"/>
<text x="450" y="251" text-anchor="middle" class="leafText">Storage</text>
<line x1="450" y1="174" x2="450" y2="290" class="line"/>
<rect x="350" y="270" width="200" height="32" rx="8" class="leaf"/>
<text x="450" y="291" text-anchor="middle" class="leafText">Bandwidth</text>
<line x1="450" y1="174" x2="450" y2="330" class="line"/>
<rect x="350" y="310" width="200" height="32" rx="8" class="leaf"/>
<text x="450" y="331" text-anchor="middle" class="leafText">Cache size</text>
<line x1="600" y1="84" x2="730" y2="150" class="line"/>
<rect x="620" y="130" width="220" height="44" rx="10" class="branch"/>
<text x="730" y="158" text-anchor="middle" class="branchText">Data + APIs</text>
<line x1="730" y1="174" x2="730" y2="210" class="line"/>
<rect x="630" y="190" width="200" height="32" rx="8" class="leaf"/>
<text x="730" y="211" text-anchor="middle" class="leafText">Access patterns</text>
<line x1="730" y1="174" x2="730" y2="250" class="line"/>
<rect x="630" y="230" width="200" height="32" rx="8" class="leaf"/>
<text x="730" y="251" text-anchor="middle" class="leafText">Schema</text>
<line x1="730" y1="174" x2="730" y2="290" class="line"/>
<rect x="630" y="270" width="200" height="32" rx="8" class="leaf"/>
<text x="730" y="291" text-anchor="middle" class="leafText">Indexes</text>
<line x1="730" y1="174" x2="730" y2="330" class="line"/>
<rect x="630" y="310" width="200" height="32" rx="8" class="leaf"/>
<text x="730" y="331" text-anchor="middle" class="leafText">API contracts</text>
<line x1="600" y1="84" x2="1010" y2="150" class="line"/>
<rect x="900" y="130" width="220" height="44" rx="10" class="branch"/>
<text x="1010" y="158" text-anchor="middle" class="branchText">Scale</text>
<line x1="1010" y1="174" x2="1010" y2="210" class="line"/>
<rect x="910" y="190" width="200" height="32" rx="8" class="leaf"/>
<text x="1010" y="211" text-anchor="middle" class="leafText">Load balancing</text>
<line x1="1010" y1="174" x2="1010" y2="250" class="line"/>
<rect x="910" y="230" width="200" height="32" rx="8" class="leaf"/>
<text x="1010" y="251" text-anchor="middle" class="leafText">Caching</text>
<line x1="1010" y1="174" x2="1010" y2="290" class="line"/>
<rect x="910" y="270" width="200" height="32" rx="8" class="leaf"/>
<text x="1010" y="291" text-anchor="middle" class="leafText">Queues</text>
<line x1="1010" y1="174" x2="1010" y2="330" class="line"/>
<rect x="910" y="310" width="200" height="32" rx="8" class="leaf"/>
<text x="1010" y="331" text-anchor="middle" class="leafText">Sharding</text>
<line x1="1010" y1="174" x2="1010" y2="370" class="line"/>
<rect x="910" y="350" width="200" height="32" rx="8" class="leaf"/>
<text x="1010" y="371" text-anchor="middle" class="leafText">Replication</text>
<line x1="600" y1="84" x2="310" y2="430" class="line"/>
<rect x="200" y="410" width="220" height="44" rx="10" class="branch"/>
<text x="310" y="438" text-anchor="middle" class="branchText">Coordinate</text>
<line x1="310" y1="454" x2="310" y2="490" class="line"/>
<rect x="210" y="470" width="200" height="32" rx="8" class="leaf"/>
<text x="310" y="491" text-anchor="middle" class="leafText">Consistency</text>
<line x1="310" y1="454" x2="310" y2="530" class="line"/>
<rect x="210" y="510" width="200" height="32" rx="8" class="leaf"/>
<text x="310" y="531" text-anchor="middle" class="leafText">Idempotency</text>
<line x1="310" y1="454" x2="310" y2="570" class="line"/>
<rect x="210" y="550" width="200" height="32" rx="8" class="leaf"/>
<text x="310" y="571" text-anchor="middle" class="leafText">Retries + timeouts</text>
<line x1="310" y1="454" x2="310" y2="610" class="line"/>
<rect x="210" y="590" width="200" height="32" rx="8" class="leaf"/>
<text x="310" y="611" text-anchor="middle" class="leafText">Backpressure</text>
<line x1="600" y1="84" x2="600" y2="430" class="line"/>
<rect x="490" y="410" width="220" height="44" rx="10" class="branch"/>
<text x="600" y="438" text-anchor="middle" class="branchText">Production</text>
<line x1="600" y1="454" x2="600" y2="490" class="line"/>
<rect x="500" y="470" width="200" height="32" rx="8" class="leaf"/>
<text x="600" y="491" text-anchor="middle" class="leafText">SLOs</text>
<line x1="600" y1="454" x2="600" y2="530" class="line"/>
<rect x="500" y="510" width="200" height="32" rx="8" class="leaf"/>
<text x="600" y="531" text-anchor="middle" class="leafText">Observability</text>
<line x1="600" y1="454" x2="600" y2="570" class="line"/>
<rect x="500" y="550" width="200" height="32" rx="8" class="leaf"/>
<text x="600" y="571" text-anchor="middle" class="leafText">Security</text>
<line x1="600" y1="454" x2="600" y2="610" class="line"/>
<rect x="500" y="590" width="200" height="32" rx="8" class="leaf"/>
<text x="600" y="611" text-anchor="middle" class="leafText">Cost</text>
<line x1="600" y1="454" x2="600" y2="650" class="line"/>
<rect x="500" y="630" width="200" height="32" rx="8" class="leaf"/>
<text x="600" y="651" text-anchor="middle" class="leafText">Runbooks</text>
<line x1="600" y1="84" x2="890" y2="430" class="line"/>
<rect x="780" y="410" width="220" height="44" rx="10" class="branch"/>
<text x="890" y="438" text-anchor="middle" class="branchText">Communicate</text>
<line x1="890" y1="454" x2="890" y2="490" class="line"/>
<rect x="790" y="470" width="200" height="32" rx="8" class="leaf"/>
<text x="890" y="491" text-anchor="middle" class="leafText">C4 diagrams</text>
<line x1="890" y1="454" x2="890" y2="530" class="line"/>
<rect x="790" y="510" width="200" height="32" rx="8" class="leaf"/>
<text x="890" y="531" text-anchor="middle" class="leafText">ADRs</text>
<line x1="890" y1="454" x2="890" y2="570" class="line"/>
<rect x="790" y="550" width="200" height="32" rx="8" class="leaf"/>
<text x="890" y="571" text-anchor="middle" class="leafText">Design docs</text>
<line x1="890" y1="454" x2="890" y2="610" class="line"/>
<rect x="790" y="590" width="200" height="32" rx="8" class="leaf"/>
<text x="890" y="611" text-anchor="middle" class="leafText">Rubrics</text>
</svg>
